<?xml version="1.0" encoding="UTF-8"?>
<svg width="215px" height="32px" viewBox="0 0 215 32" version="1.1" xmlns="http://www.w3.org/2000/svg">
    <g transform="translate(0, 1) scale(0.5357)">
        <g id="flag">
                <rect id="Rectangle-path" fill="#004494" x="0" y="0" width="84" height="56"></rect>
                <g id="Group" transform="translate(20.000000, 6.000000)" fill="#FFCC00">
                    <g id="s-link" transform="translate(19.000000, 0.000000)">
                        <g id="s">
                            <g id="c" transform="translate(2.000000, 0.000000)">
                                <polygon id="t" points="0.99 0.17 0.03 3.14 1.5 3.62"></polygon>
                                <g id="t-link">
                                    <polygon id="t-2" points="0.99 0.17 1.95 3.14 0.48 3.62"></polygon>
                                </g>
                            </g>
                            <g id="a" transform="translate(2.000000, 2.000000)">
                                <g id="c-link">
                                    <g id="c-2">
                                        <polygon id="t-3" points="3.95 0.33 0.83 0.33 0.83 1.88"></polygon>
                                        <g id="t-link-2">
                                            <polygon id="t-4" points="3.95 0.32 1.42 2.15 0.51 0.9"></polygon>
                                        </g>
                                    </g>
                                </g>
                                <g id="c-link-2">
                                    <g id="c-3">
                                        <polygon id="t-5" points="2.81 3.81 1.85 0.85 0.38 1.32"></polygon>
                                        <g id="t-link-3">
                                            <polygon id="t-6" points="2.82 3.81 0.3 1.97 1.21 0.72"></polygon>
                                        </g>
                                    </g>
                                </g>
                            </g>
                            <g id="a-link" transform="translate(0.000000, 2.000000)">
                                <g id="a-2">
                                    <g id="c-link-3">
                                        <g id="c-4">
                                            <polygon id="t-7" points="0.03 0.33 3.15 0.33 3.15 1.88"></polygon>
                                            <g id="t-link-4">
                                                <polygon id="t-8" points="0.03 0.32 2.55 2.15 3.47 0.9"></polygon>
                                            </g>
                                        </g>
                                    </g>
                                    <g id="c-link-4" transform="translate(1.000000, 0.000000)">
                                        <g id="c-5">
                                            <polygon id="t-9" points="0.16 3.81 1.13 0.85 2.6 1.32"></polygon>
                                            <g id="t-link-5">
                                                <polygon id="t-10" points="0.16 3.81 2.68 1.97 1.77 0.72"></polygon>
                                            </g>
                                        </g>
                                    </g>
                                </g>
                            </g>
                        </g>
                    </g>
                    <g id="s-link-2" transform="translate(19.000000, 37.000000)">
                        <g id="s-2">
                            <g id="c-6" transform="translate(2.000000, 0.000000)">
                                <polygon id="t-11" points="0.99 0.57 0.03 3.54 1.5 4.02"></polygon>
                                <g id="t-link-6">
                                    <polygon id="t-12" points="0.99 0.57 1.95 3.54 0.48 4.02"></polygon>
                                </g>
                            </g>
                            <g id="a-3" transform="translate(2.000000, 2.000000)">
                                <g id="c-link-5">
                                    <g id="c-7">
                                        <polygon id="t-13" points="3.95 0.73 0.83 0.73 0.83 2.28"></polygon>
                                        <g id="t-link-7">
                                            <polygon id="t-14" points="3.95 0.72 1.42 2.55 0.51 1.3"></polygon>
                                        </g>
                                    </g>
                                </g>
                                <g id="c-link-6" transform="translate(0.000000, 1.000000)">
                                    <g id="c-8">
                                        <polygon id="t-15" points="2.81 3.21 1.85 0.25 0.38 0.73"></polygon>
                                        <g id="t-link-8">
                                            <polygon id="t-16" points="2.82 3.21 0.3 1.38 1.21 0.12"></polygon>
                                        </g>
                                    </g>
                                </g>
                            </g>
                            <g id="a-link-2" transform="translate(0.000000, 2.000000)">
                                <g id="a-4">
                                    <g id="c-link-7">
                                        <g id="c-9">
                                            <polygon id="t-17" points="0.03 0.73 3.15 0.73 3.15 2.28"></polygon>
                                            <g id="t-link-9">
                                                <polygon id="t-18" points="0.03 0.72 2.55 2.55 3.47 1.3"></polygon>
                                            </g>
                                        </g>
                                    </g>
                                    <g id="c-link-8" transform="translate(1.000000, 1.000000)">
                                        <g id="c-10">
                                            <polygon id="t-19" points="0.16 3.21 1.13 0.25 2.6 0.73"></polygon>
                                            <g id="t-link-10">
                                                <polygon id="t-20" points="0.16 3.21 2.68 1.38 1.77 0.12"></polygon>
                                            </g>
                                        </g>
                                    </g>
                                </g>
                            </g>
                        </g>
                    </g>
                    <g id="l" transform="translate(0.000000, 2.000000)">
                        <g id="s-link-3" transform="translate(0.000000, 16.000000)">
                            <g id="s-3">
                                <g id="c-11" transform="translate(2.000000, 0.000000)">
                                    <polygon id="t-21" points="1.4 0.87 0.44 3.84 1.91 4.32"></polygon>
                                    <g id="t-link-11">
                                        <polygon id="t-22" points="1.4 0.87 2.36 3.84 0.89 4.32"></polygon>
                                    </g>
                                </g>
                                <g id="a-5" transform="translate(2.000000, 3.000000)">
                                    <g id="c-link-9">
                                        <g id="c-12">
                                            <polygon id="t-23" points="4.36 0.03 1.24 0.03 1.24 1.58"></polygon>
                                            <g id="t-link-12">
                                                <polygon id="t-24" points="4.36 0.02 1.84 1.86 0.93 0.6"></polygon>
                                            </g>
                                        </g>
                                    </g>
                                    <g id="c-link-10">
                                        <g id="c-13">
                                            <polygon id="t-25" points="3.23 3.51 2.26 0.55 0.79 1.02"></polygon>
                                            <g id="t-link-13">
                                                <polygon id="t-26" points="3.23 3.51 0.71 1.68 1.62 0.42"></polygon>
                                            </g>
                                        </g>
                                    </g>
                                </g>
                                <g id="a-link-3" transform="translate(0.000000, 3.000000)">
                                    <g id="a-6">
                                        <g id="c-link-11">
                                            <g id="c-14">
                                                <polygon id="t-27" points="0.44 0.03 3.56 0.03 3.56 1.58"></polygon>
                                                <g id="t-link-14">
                                                    <polygon id="t-28" points="0.45 0.02 2.97 1.86 3.88 0.6"></polygon>
                                                </g>
                                            </g>
                                        </g>
                                        <g id="c-link-12" transform="translate(1.000000, 0.000000)">
                                            <g id="c-15">
                                                <polygon id="t-29" points="0.58 3.51 1.54 0.55 3.01 1.02"></polygon>
                                                <g id="t-link-15">
                                                    <polygon id="t-30" points="0.57 3.51 3.09 1.68 2.18 0.42"></polygon>
                                                </g>
                                            </g>
                                        </g>
                                    </g>
                                </g>
                            </g>
                        </g>
                        <g id="s-link-4" transform="translate(9.000000, 0.000000)">
                            <g id="s-4">
                                <g id="c-16" transform="translate(1.000000, 3.000000)">
                                    <polygon id="t-31" points="0.86 3.31 3.38 1.48 2.47 0.23"></polygon>
                                    <g id="t-link-16">
                                        <polygon id="t-32" points="0.86 3.32 1.83 0.35 3.3 0.83"></polygon>
                                    </g>
                                </g>
                                <g id="a-7">
                                    <g id="c-link-13" transform="translate(0.000000, 2.000000)">
                                        <g id="c-17">
                                            <polygon id="t-33" points="0.74 0.83 3.26 2.66 4.17 1.41"></polygon>
                                            <g id="t-link-17">
                                                <polygon id="t-34" points="0.73 0.84 3.85 0.84 3.85 2.39"></polygon>
                                            </g>
                                        </g>
                                    </g>
                                    <g id="c-link-14" transform="translate(2.000000, 0.000000)">
                                        <g id="c-18">
                                            <polygon id="t-35" points="1.7 0.68 0.74 3.64 2.21 4.12"></polygon>
                                            <g id="t-link-18" transform="translate(1.000000, 0.000000)">
                                                <polygon id="t-36" points="0.69 0.68 1.66 3.64 0.18 4.12"></polygon>
                                            </g>
                                        </g>
                                    </g>
                                </g>
                                <g id="a-link-4" transform="translate(3.000000, 2.000000)">
                                    <g id="a-8">
                                        <g id="c-link-15" transform="translate(0.000000, 1.000000)">
                                            <g id="c-19">
                                                <polygon id="t-37" points="2.52 3.31 0 1.48 0.91 0.22"></polygon>
                                                <g id="t-link-19">
                                                    <polygon id="t-38" points="2.52 3.31 1.55 0.35 0.08 0.83"></polygon>
                                                </g>
                                            </g>
                                        </g>
                                        <g id="c-link-16">
                                            <g id="c-20">
                                                <polygon id="t-39" points="3.65 0.83 1.13 2.66 0.22 1.4"></polygon>
                                                <g id="t-link-20">
                                                    <polygon id="t-40" points="3.65 0.83 0.54 0.83 0.54 2.38"></polygon>
                                                </g>
                                            </g>
                                        </g>
                                    </g>
                                </g>
                            </g>
                        </g>
                        <g id="s-link-5" transform="translate(2.000000, 7.000000)">
                            <g id="s-5">
                                <g id="c-21" transform="translate(3.000000, 3.000000)">
                                    <polygon id="t-41" points="2.72 3.16 1.76 0.2 0.29 0.67"></polygon>
                                    <g id="t-link-21">
                                        <polygon id="t-42" points="2.73 3.16 0.2 1.32 1.11 0.07"></polygon>
                                    </g>
                                </g>
                                <g id="a-9" transform="translate(0.000000, 2.000000)">
                                    <g id="c-link-17" transform="translate(2.000000, 1.000000)">
                                        <g id="c-22">
                                            <polygon id="t-43" points="0.06 3.15 2.59 1.32 1.68 0.07"></polygon>
                                            <g id="t-link-22">
                                                <polygon id="t-44" points="0.07 3.16 1.03 0.19 2.5 0.67"></polygon>
                                            </g>
                                        </g>
                                    </g>
                                    <g id="c-link-18">
                                        <g id="c-23">
                                            <polygon id="t-45" points="0.93 0.67 3.45 2.5 4.37 1.25"></polygon>
                                            <g id="t-link-23">
                                                <polygon id="t-46" points="0.93 0.68 4.05 0.68 4.05 2.23"></polygon>
                                            </g>
                                        </g>
                                    </g>
                                </g>
                                <g id="a-link-5" transform="translate(2.000000, 0.000000)">
                                    <g id="a-10">
                                        <g id="c-link-19" transform="translate(1.000000, 2.000000)">
                                            <g id="c-24">
                                                <polygon id="t-47" points="3.85 0.68 1.33 2.51 0.42 1.25"></polygon>
                                                <g id="t-link-24">
                                                    <polygon id="t-48" points="3.85 0.68 0.73 0.68 0.73 2.23"></polygon>
                                                </g>
                                            </g>
                                        </g>
                                        <g id="c-link-20">
                                            <g id="c-25">
                                                <polygon id="t-49" points="1.89 0.53 2.85 3.49 1.38 3.97"></polygon>
                                                <g id="t-link-25">
                                                    <polygon id="t-50" points="1.89 0.53 0.93 3.49 2.4 3.97"></polygon>
                                                </g>
                                            </g>
                                        </g>
                                    </g>
                                </g>
                            </g>
                        </g>
                        <g id="s-link-6" transform="translate(2.000000, 26.000000)">
                            <g id="s-6">
                                <g id="c-26" transform="translate(3.000000, 2.000000)">
                                    <polygon id="t-51" points="3.86 0.38 0.74 0.38 0.74 1.93"></polygon>
                                    <g id="t-link-26">
                                        <polygon id="t-52" points="3.86 0.37 1.33 2.2 0.42 0.95"></polygon>
                                    </g>
                                </g>
                                <g id="a-11" transform="translate(2.000000, 2.000000)">
                                    <g id="c-link-21" transform="translate(1.000000, 0.000000)">
                                        <g id="c-27">
                                            <polygon id="t-53" points="2.72 3.85 1.76 0.89 0.28 1.37"></polygon>
                                            <g id="t-link-27">
                                                <polygon id="t-54" points="2.73 3.85 0.2 2.02 1.11 0.77"></polygon>
                                            </g>
                                        </g>
                                    </g>
                                    <g id="c-link-22">
                                        <g id="c-28">
                                            <polygon id="t-55" points="0.06 3.85 2.58 2.02 1.67 0.77"></polygon>
                                            <g id="t-link-28">
                                                <polygon id="t-56" points="0.06 3.86 1.03 0.89 2.5 1.37"></polygon>
                                            </g>
                                        </g>
                                    </g>
                                </g>
                                <g id="a-link-6">
                                    <g id="a-12">
                                        <g id="c-link-23" transform="translate(2.000000, 0.000000)">
                                            <g id="c-29">
                                                <polygon id="t-57" points="1.89 0.23 2.86 3.19 1.38 3.67"></polygon>
                                                <g id="t-link-29">
                                                    <polygon id="t-58" points="1.9 0.23 0.93 3.19 2.41 3.67"></polygon>
                                                </g>
                                            </g>
                                        </g>
                                        <g id="c-link-24" transform="translate(0.000000, 2.000000)">
                                            <g id="c-30">
                                                <polygon id="t-59" points="0.93 0.38 4.05 0.38 4.05 1.93"></polygon>
                                                <g id="t-link-30">
                                                    <polygon id="t-60" points="0.93 0.38 3.45 2.21 4.36 0.95"></polygon>
                                                </g>
                                            </g>
                                        </g>
                                    </g>
                                </g>
                            </g>
                        </g>
                        <g id="s-link-7" transform="translate(9.000000, 33.000000)">
                            <g id="s-7">
                                <g id="c-31" transform="translate(3.000000, 2.000000)">
                                    <polygon id="t-61" points="3.66 0.22 0.54 0.22 0.54 1.77"></polygon>
                                    <g id="t-link-31">
                                        <polygon id="t-62" points="3.66 0.22 1.14 2.05 0.23 0.8"></polygon>
                                    </g>
                                </g>
                                <g id="a-13" transform="translate(1.000000, 2.000000)">
                                    <g id="c-link-25" transform="translate(2.000000, 0.000000)">
                                        <g id="c-32">
                                            <polygon id="t-63" points="2.52 3.7 1.56 0.73 0.09 1.21"></polygon>
                                            <g id="t-link-32">
                                                <polygon id="t-64" points="2.53 3.7 0.01 1.86 0.92 0.61"></polygon>
                                            </g>
                                        </g>
                                    </g>
                                    <g id="c-link-26">
                                        <g id="c-33">
                                            <polygon id="t-65" points="0.86 3.7 3.38 1.87 2.47 0.61"></polygon>
                                            <g id="t-link-33">
                                                <polygon id="t-66" points="0.87 3.7 1.83 0.74 3.3 1.22"></polygon>
                                            </g>
                                        </g>
                                    </g>
                                </g>
                                <g id="a-link-7">
                                    <g id="a-14">
                                        <g id="c-link-27" transform="translate(2.000000, 0.000000)">
                                            <g id="c-34">
                                                <polygon id="t-67" points="1.7 0.07 2.66 3.04 1.19 3.52"></polygon>
                                                <g id="t-link-34">
                                                    <polygon id="t-68" points="1.7 0.07 0.74 3.04 2.21 3.52"></polygon>
                                                </g>
                                            </g>
                                        </g>
                                        <g id="c-link-28" transform="translate(0.000000, 2.000000)">
                                            <g id="c-35">
                                                <polygon id="t-69" points="0.73 0.23 3.85 0.23 3.85 1.78"></polygon>
                                                <g id="t-link-35">
                                                    <polygon id="t-70" points="0.74 0.22 3.26 2.05 4.17 0.8"></polygon>
                                                </g>
                                            </g>
                                        </g>
                                    </g>
                                </g>
                            </g>
                        </g>
                    </g>
                    <g id="l-link" transform="translate(28.000000, 2.000000)">
                        <g id="l-2">
                            <g id="s-link-8" transform="translate(9.000000, 16.000000)">
                                <g id="s-8">
                                    <g id="c-36" transform="translate(2.000000, 0.000000)">
                                        <polygon id="t-71" points="1.57 0.87 2.54 3.84 1.06 4.32"></polygon>
                                        <g id="t-link-36">
                                            <polygon id="t-72" points="1.58 0.87 0.62 3.84 2.09 4.32"></polygon>
                                        </g>
                                    </g>
                                    <g id="a-15" transform="translate(0.000000, 3.000000)">
                                        <g id="c-link-29">
                                            <g id="c-37">
                                                <polygon id="t-73" points="0.62 0.03 3.74 0.03 3.74 1.58"></polygon>
                                                <g id="t-link-37">
                                                    <polygon id="t-74" points="0.62 0.02 3.14 1.86 4.05 0.6"></polygon>
                                                </g>
                                            </g>
                                        </g>
                                        <g id="c-link-30" transform="translate(1.000000, 0.000000)">
                                            <g id="c-38">
                                                <polygon id="t-75" points="0.75 3.51 1.72 0.55 3.19 1.02"></polygon>
                                                <g id="t-link-38">
                                                    <polygon id="t-76" points="0.75 3.51 3.27 1.68 2.36 0.42"></polygon>
                                                </g>
                                            </g>
                                        </g>
                                    </g>
                                    <g id="a-link-8" transform="translate(2.000000, 3.000000)">
                                        <g id="a-16">
                                            <g id="c-link-31" transform="translate(1.000000, 0.000000)">
                                                <g id="c-39">
                                                    <polygon id="t-77" points="3.53 0.03 0.42 0.03 0.42 1.58"></polygon>
                                                    <g id="t-link-39">
                                                        <polygon id="t-78" points="3.53 0.02 1.01 1.86 0.1 0.6"></polygon>
                                                    </g>
                                                </g>
                                            </g>
                                            <g id="c-link-32">
                                                <g id="c-40">
                                                    <polygon id="t-79" points="3.4 3.51 2.44 0.55 0.97 1.02"></polygon>
                                                    <g id="t-link-40">
                                                        <polygon id="t-80" points="3.41 3.51 0.88 1.68 1.8 0.42"></polygon>
                                                    </g>
                                                </g>
                                            </g>
                                        </g>
                                    </g>
                                </g>
                            </g>
                            <g id="s-link-9">
                                <g id="s-9">
                                    <g id="c-41" transform="translate(2.000000, 3.000000)">
                                        <polygon id="t-81" points="3.12 3.31 0.6 1.48 1.51 0.23"></polygon>
                                        <g id="t-link-41">
                                            <polygon id="t-82" points="3.11 3.32 2.15 0.35 0.68 0.83"></polygon>
                                        </g>
                                    </g>
                                    <g id="a-17" transform="translate(2.000000, 0.000000)">
                                        <g id="c-link-33" transform="translate(0.000000, 2.000000)">
                                            <g id="c-42">
                                                <polygon id="t-83" points="4.24 0.83 1.72 2.66 0.81 1.41"></polygon>
                                                <g id="t-link-42" transform="translate(1.000000, 0.000000)">
                                                    <polygon id="t-84" points="3.24 0.84 0.13 0.84 0.13 2.39"></polygon>
                                                </g>
                                            </g>
                                        </g>
                                        <g id="c-link-34">
                                            <g id="c-43">
                                                <polygon id="t-85" points="1.28 0.68 2.24 3.64 0.77 4.12"></polygon>
                                                <g id="t-link-43">
                                                    <polygon id="t-86" points="1.28 0.68 0.32 3.64 1.79 4.12"></polygon>
                                                </g>
                                            </g>
                                        </g>
                                    </g>
                                    <g id="a-link-9" transform="translate(0.000000, 2.000000)">
                                        <g id="a-18">
                                            <g id="c-link-35" transform="translate(1.000000, 1.000000)">
                                                <g id="c-44">
                                                    <polygon id="t-87" points="0.46 3.31 2.98 1.48 2.07 0.22"></polygon>
                                                    <g id="t-link-44">
                                                        <polygon id="t-88" points="0.46 3.31 1.42 0.35 2.9 0.83"></polygon>
                                                    </g>
                                                </g>
                                            </g>
                                            <g id="c-link-36">
                                                <g id="c-45">
                                                    <polygon id="t-89" points="0.33 0.83 2.85 2.66 3.76 1.4"></polygon>
                                                    <g id="t-link-45">
                                                        <polygon id="t-90" points="0.32 0.83 3.44 0.83 3.44 2.38"></polygon>
                                                    </g>
                                                </g>
                                            </g>
                                        </g>
                                    </g>
                                </g>
                            </g>
                            <g id="s-link-10" transform="translate(7.000000, 7.000000)">
                                <g id="s-10">
                                    <g id="c-46" transform="translate(1.000000, 3.000000)">
                                        <polygon id="t-91" points="0.26 3.16 1.22 0.2 2.69 0.67"></polygon>
                                        <g id="t-link-46">
                                            <polygon id="t-92" points="0.25 3.16 2.77 1.32 1.86 0.07"></polygon>
                                        </g>
                                    </g>
                                    <g id="a-19" transform="translate(2.000000, 2.000000)">
                                        <g id="c-link-37" transform="translate(0.000000, 1.000000)">
                                            <g id="c-47">
                                                <polygon id="t-93" points="2.91 3.15 0.39 1.32 1.3 0.07"></polygon>
                                                <g id="t-link-47">
                                                    <polygon id="t-94" points="2.91 3.16 1.95 0.19 0.47 0.67"></polygon>
                                                </g>
                                            </g>
                                        </g>
                                        <g id="c-link-38">
                                            <g id="c-48">
                                                <polygon id="t-95" points="4.04 0.67 1.52 2.5 0.61 1.25"></polygon>
                                                <g id="t-link-48">
                                                    <polygon id="t-96" points="4.05 0.68 0.93 0.68 0.93 2.23"></polygon>
                                                </g>
                                            </g>
                                        </g>
                                    </g>
                                    <g id="a-link-10">
                                        <g id="a-20">
                                            <g id="c-link-39" transform="translate(0.000000, 2.000000)">
                                                <g id="c-49">
                                                    <polygon id="t-97" points="0.13 0.68 2.65 2.51 3.56 1.25"></polygon>
                                                    <g id="t-link-49">
                                                        <polygon id="t-98" points="0.13 0.68 3.24 0.68 3.24 2.23"></polygon>
                                                    </g>
                                                </g>
                                            </g>
                                            <g id="c-link-40" transform="translate(2.000000, 0.000000)">
                                                <g id="c-50">
                                                    <polygon id="t-99" points="1.09 0.53 0.13 3.49 1.6 3.97"></polygon>
                                                    <g id="t-link-50">
                                                        <polygon id="t-100" points="1.09 0.53 2.05 3.49 0.58 3.97"></polygon>
                                                    </g>
                                                </g>
                                            </g>
                                        </g>
                                    </g>
                                </g>
                            </g>
                            <g id="s-link-11" transform="translate(7.000000, 26.000000)">
                                <g id="s-11">
                                    <g id="c-51" transform="translate(0.000000, 2.000000)">
                                        <polygon id="t-101" points="0.12 0.38 3.24 0.38 3.24 1.93"></polygon>
                                        <g id="t-link-51">
                                            <polygon id="t-102" points="0.12 0.37 2.64 2.2 3.55 0.95"></polygon>
                                        </g>
                                    </g>
                                    <g id="a-21" transform="translate(1.000000, 2.000000)">
                                        <g id="c-link-41">
                                            <g id="c-52">
                                                <polygon id="t-103" points="0.26 3.85 1.22 0.89 2.69 1.37"></polygon>
                                                <g id="t-link-52">
                                                    <polygon id="t-104" points="0.25 3.85 2.77 2.02 1.86 0.77"></polygon>
                                                </g>
                                            </g>
                                        </g>
                                        <g id="c-link-42" transform="translate(1.000000, 0.000000)">
                                            <g id="c-53">
                                                <polygon id="t-105" points="2.92 3.85 0.4 2.02 1.31 0.77"></polygon>
                                                <g id="t-link-53">
                                                    <polygon id="t-106" points="2.91 3.86 1.95 0.89 0.48 1.37"></polygon>
                                                </g>
                                            </g>
                                        </g>
                                    </g>
                                    <g id="a-link-11" transform="translate(2.000000, 0.000000)">
                                        <g id="a-22">
                                            <g id="c-link-43">
                                                <g id="c-54">
                                                    <polygon id="t-107" points="1.09 0.23 0.12 3.19 1.59 3.67"></polygon>
                                                    <g id="t-link-54">
                                                        <polygon id="t-108" points="1.08 0.23 2.04 3.19 0.57 3.67"></polygon>
                                                    </g>
                                                </g>
                                            </g>
                                            <g id="c-link-44" transform="translate(0.000000, 2.000000)">
                                                <g id="c-55">
                                                    <polygon id="t-109" points="4.05 0.38 0.93 0.38 0.93 1.93"></polygon>
                                                    <g id="t-link-55">
                                                        <polygon id="t-110" points="4.05 0.38 1.52 2.21 0.61 0.95"></polygon>
                                                    </g>
                                                </g>
                                            </g>
                                        </g>
                                    </g>
                                </g>
                            </g>
                            <g id="s-link-12" transform="translate(0.000000, 33.000000)">
                                <g id="s-12">
                                    <g id="c-56" transform="translate(0.000000, 2.000000)">
                                        <polygon id="t-111" points="0.32 0.22 3.43 0.22 3.43 1.77"></polygon>
                                        <g id="t-link-56">
                                            <polygon id="t-112" points="0.32 0.22 2.84 2.05 3.75 0.8"></polygon>
                                        </g>
                                    </g>
                                    <g id="a-23" transform="translate(1.000000, 2.000000)">
                                        <g id="c-link-45">
                                            <g id="c-57">
                                                <polygon id="t-113" points="0.45 3.7 1.42 0.73 2.89 1.21"></polygon>
                                                <g id="t-link-57">
                                                    <polygon id="t-114" points="0.45 3.7 2.97 1.86 2.06 0.61"></polygon>
                                                </g>
                                            </g>
                                        </g>
                                        <g id="c-link-46" transform="translate(1.000000, 0.000000)">
                                            <g id="c-58">
                                                <polygon id="t-115" points="3.12 3.7 0.59 1.87 1.5 0.61"></polygon>
                                                <g id="t-link-58">
                                                    <polygon id="t-116" points="3.11 3.7 2.15 0.74 0.67 1.22"></polygon>
                                                </g>
                                            </g>
                                        </g>
                                    </g>
                                    <g id="a-link-12" transform="translate(2.000000, 0.000000)">
                                        <g id="a-24">
                                            <g id="c-link-47">
                                                <g id="c-59">
                                                    <polygon id="t-117" points="1.28 0.07 0.32 3.04 1.79 3.52"></polygon>
                                                    <g id="t-link-59">
                                                        <polygon id="t-118" points="1.27 0.07 2.24 3.04 0.77 3.52"></polygon>
                                                    </g>
                                                </g>
                                            </g>
                                            <g id="c-link-48" transform="translate(0.000000, 2.000000)">
                                                <g id="c-60">
                                                    <polygon id="t-119" points="4.24 0.23 1.13 0.23 1.13 1.78"></polygon>
                                                    <g id="t-link-60">
                                                        <polygon id="t-120" points="4.24 0.22 1.72 2.05 0.81 0.8"></polygon>
                                                    </g>
                                                </g>
                                            </g>
                                        </g>
                                    </g>
                                </g>
                            </g>
                        </g>
                    </g>
                </g>
            </g>
    </g>
    <g transform="translate(54, 3) scale(1.4)">
        <g id="Group" fill="#6C3088">
                    <path d="M7,0.9 C8.8,0.9 10.2,1.4 11.3,2.4 C12.4,3.4 12.9,4.9 12.9,6.8 L12.9,8.5 L4.5,8.5 C4.5,9.5 4.8,10.3 5.4,10.9 C6,11.5 6.8,11.8 7.8,11.8 C8.6,11.8 9.4,11.7 10.1,11.5 C10.8,11.3 11.5,11.1 12.2,10.7 L12.2,13.5 C11.5,13.8 10.9,14.1 10.2,14.2 C9.5,14.4 8.6,14.4 7.6,14.4 C6.3,14.4 5.1,14.2 4.1,13.7 C3.1,13.2 2.3,12.5 1.7,11.5 C1.1,10.5 0.8,9.3 0.8,7.7 C0.8,6.1 1.1,4.9 1.6,3.9 C2.1,2.9 2.8,2.1 3.8,1.6 C4.8,1.1 5.7,0.9 7,0.9 Z M7,3.4 C6.3,3.4 5.7,3.6 5.3,4.1 C4.9,4.5 4.6,5.2 4.5,6.2 L9.5,6.2 C9.5,5.4 9.3,4.8 8.9,4.2 C8.5,3.7 7.8,3.4 7,3.4 Z" id="Shape"></path>
                    <path d="M27.8,1.1 L27.8,14.2 L25.1,14.2 L24.6,12.5 L24.4,12.5 C24,13.2 23.4,13.7 22.7,14 C22,14.3 21.2,14.5 20.4,14.5 C19,14.5 17.9,14.1 17,13.4 C16.2,12.6 15.7,11.4 15.7,9.7 L15.7,1.2 L19.3,1.2 L19.3,8.9 C19.3,9.8 19.5,10.6 19.8,11 C20.1,11.4 20.7,11.7 21.4,11.7 C22.5,11.7 23.2,11.3 23.6,10.6 C24,9.9 24.2,8.8 24.2,7.4 L24.2,1.2 L27.8,1.2 L27.8,1.1 Z" id="Path"></path>
                    <path d="M38.9,0.9 C39.1,0.9 39.3,0.9 39.5,0.9 C39.7,0.9 39.9,0.9 40.1,1 L39.8,4.4 C39.7,4.4 39.5,4.3 39.3,4.3 C39.1,4.3 38.9,4.3 38.7,4.3 C38.1,4.3 37.5,4.4 36.9,4.6 C36.3,4.8 35.9,5.2 35.5,5.6 C35.2,6.1 35,6.7 35,7.6 L35,14.3 L31.4,14.3 L31.4,1.1 L34.1,1.1 L34.6,3.3 L34.8,3.3 C35.2,2.6 35.7,2.1 36.4,1.6 C37.2,1.1 38,0.9 38.9,0.9 Z" id="Path"></path>
                    <path d="M53.9,7.7 C53.9,9.9 53.3,11.6 52.2,12.7 C51.1,13.9 49.5,14.5 47.5,14.5 C46.3,14.5 45.2,14.2 44.2,13.7 C43.2,13.2 42.5,12.4 42,11.4 C41.5,10.4 41.2,9.1 41.2,7.7 C41.2,5.5 41.8,3.9 42.9,2.7 C44,1.5 45.6,0.9 47.6,0.9 C48.8,0.9 49.9,1.2 50.9,1.7 C51.8,2.2 52.6,3 53.1,4 C53.6,5 53.9,6.2 53.9,7.7 Z M44.8,7.7 C44.8,9 45,10 45.4,10.6 C45.8,11.3 46.5,11.6 47.5,11.6 C48.4,11.6 49.1,11.3 49.6,10.6 C50,9.9 50.2,9 50.2,7.7 C50.2,6.4 50,5.4 49.6,4.8 C49.2,4.2 48.5,3.8 47.5,3.8 C46.6,3.8 45.9,4.1 45.4,4.8 C45,5.4 44.8,6.4 44.8,7.7 Z" id="Shape"></path>
                    <path d="M64.1,0.9 C65.6,0.9 66.8,1.5 67.7,2.6 C68.6,3.7 69.1,5.4 69.1,7.7 C69.1,9.9 68.6,11.6 67.7,12.8 C66.8,14 65.5,14.5 64.1,14.5 C63.2,14.5 62.4,14.3 61.8,14 C61.2,13.7 60.8,13.3 60.4,12.8 L60.2,12.8 C60.3,13.5 60.4,14.1 60.4,14.7 L60.4,20 L56.8,20 L56.8,1.1 L59.7,1.1 L60.2,2.8 L60.4,2.8 C60.8,2.3 61.2,1.8 61.8,1.4 C62.4,1.1 63.2,0.9 64.1,0.9 Z M62.9,3.7 C62,3.7 61.3,4 60.9,4.6 C60.5,5.2 60.3,6.1 60.3,7.2 L60.3,7.6 C60.3,8.9 60.5,9.8 60.9,10.5 C61.3,11.2 62,11.5 63,11.5 C63.8,11.5 64.4,11.2 64.8,10.5 C65.2,9.8 65.4,8.8 65.4,7.6 C65.4,5 64.6,3.7 62.9,3.7 Z" id="Shape"></path>
                    <path d="M77.4,0.9 C79.2,0.9 80.5,1.3 81.4,2 C82.3,2.8 82.8,3.9 82.8,5.5 L82.8,14.2 L80.3,14.2 L79.6,12.4 L79.5,12.4 C78.9,13.1 78.3,13.6 77.7,13.9 C77.1,14.2 76.2,14.4 75.1,14.4 C73.9,14.4 73,14.1 72.2,13.4 C71.4,12.7 71,11.7 71,10.3 C71,8.9 71.5,7.9 72.5,7.2 C73.5,6.5 74.9,6.2 76.9,6.1 L79.2,6 L79.2,5.4 C79.2,4.7 79,4.2 78.7,3.9 C78.3,3.6 77.8,3.4 77.2,3.4 C76.6,3.4 75.9,3.5 75.3,3.7 C74.7,3.9 74.1,4.1 73.5,4.4 L72.3,2 C73,1.6 73.8,1.4 74.6,1.1 C75.4,0.8 76.4,0.9 77.4,0.9 Z M79.3,8.2 L77.9,8.2 C76.7,8.2 75.9,8.4 75.5,8.8 C75.1,9.2 74.8,9.7 74.8,10.3 C74.8,10.8 75,11.2 75.3,11.5 C75.6,11.7 76,11.8 76.5,11.8 C77.3,11.8 77.9,11.6 78.4,11.1 C78.9,10.6 79.2,10 79.2,9.2 L79.2,8.2 L79.3,8.2 Z" id="Shape"></path>
                    <path d="M95.6,10.3 C95.6,11.6 95.1,12.6 94.2,13.4 C93.3,14.1 91.9,14.5 90,14.5 C89.1,14.5 88.3,14.4 87.6,14.3 C86.9,14.2 86.3,14 85.6,13.7 L85.6,10.7 C86.3,11 87.1,11.3 87.9,11.5 C88.7,11.7 89.4,11.8 90.1,11.8 C90.8,11.8 91.3,11.7 91.6,11.5 C91.9,11.3 92.1,11 92.1,10.7 C92.1,10.5 92,10.3 91.9,10.1 C91.8,9.9 91.5,9.7 91.1,9.5 C90.7,9.3 90.1,9 89.2,8.6 C88.4,8.2 87.7,7.9 87.2,7.6 C86.7,7.3 86.3,6.8 86,6.4 C85.7,5.9 85.6,5.3 85.6,4.6 C85.6,3.4 86.1,2.5 87,1.9 C87.9,1.3 89.2,1 90.8,1 C91.6,1 92.4,1.1 93.1,1.2 C93.8,1.4 94.6,1.6 95.4,2 L94.3,4.6 C93.7,4.3 93.1,4.1 92.5,3.9 C91.9,3.7 91.3,3.6 90.7,3.6 C89.6,3.6 89.1,3.9 89.1,4.5 C89.1,4.7 89.2,4.9 89.3,5.1 C89.4,5.3 89.7,5.4 90.1,5.6 C90.5,5.8 91.1,6 91.8,6.4 C92.6,6.7 93.2,7 93.7,7.3 C94.2,7.6 94.7,8 95,8.5 C95.3,9 95.6,9.6 95.6,10.3 Z" id="Path"></path>
                    <path d="M107.6,10.3 C107.6,11.6 107.1,12.6 106.2,13.4 C105.3,14.1 103.9,14.5 102,14.5 C101.1,14.5 100.3,14.4 99.6,14.3 C98.9,14.2 98.3,14 97.6,13.7 L97.6,10.7 C98.3,11 99.1,11.3 99.9,11.5 C100.7,11.7 101.4,11.8 102.1,11.8 C102.8,11.8 103.3,11.7 103.6,11.5 C103.9,11.3 104.1,11 104.1,10.7 C104.1,10.5 104,10.3 103.9,10.1 C103.8,9.9 103.5,9.7 103.1,9.5 C102.7,9.3 102.1,9 101.2,8.6 C100.4,8.2 99.7,7.9 99.2,7.6 C98.7,7.3 98.3,6.8 98,6.4 C97.7,5.9 97.6,5.3 97.6,4.6 C97.6,3.4 98.1,2.5 99,1.9 C99.9,1.3 101.2,1 102.8,1 C103.6,1 104.4,1.1 105.1,1.2 C105.8,1.4 106.6,1.6 107.4,2 L106.3,4.6 C105.7,4.3 105.1,4.1 104.5,3.9 C103.9,3.7 103.3,3.6 102.7,3.6 C101.6,3.6 101.1,3.9 101.1,4.5 C101.1,4.7 101.2,4.9 101.3,5.1 C101.4,5.3 101.7,5.4 102.1,5.6 C102.5,5.8 103.1,6 103.8,6.4 C104.6,6.7 105.2,7 105.7,7.3 C106.2,7.6 106.7,8 107,8.5 C107.3,9 107.6,9.6 107.6,10.3 Z" id="Path"></path>
                </g>
    </g>
</svg>